<svg width="250" height="250" viewBox="0 0 250 250" fill="none" xmlns="http://www.w3.org/2000/svg">
<circle cx="125" cy="125" r="125" fill="#810CA8"/>
<path d="M34.2 192.6C28.0667 192.6 25 190.667 25 186.8C25 184 25.8 182 27.4 180.8C27 182 26.8 183.267 26.8 184.6C26.8 188.2 29.3333 190 34.4 190C43.2 190 53.3333 185.667 64.8 177C63.6 176.333 62.5333 175.667 61.6 175C60.5333 174.333 59.5333 173.733 58.6 173.2C49.5333 179.733 42.3333 183 37 183C36.0667 183 35.6 182.733 35.6 182.2C35.6 181.267 36.2667 180.733 37.6 180.6C41.0667 179.4 44.3333 178 47.4 176.4C50.4667 174.8 53.4 173 56.2 171C52.2 167.133 50.2 163.133 50.2 159C50.2 151.267 56.2667 144.4 68.4 138.4C72.6667 136.133 77.1333 134.267 81.8 132.8C86.4667 131.2 91.4 129.933 96.6 129C105.933 116.733 114.133 104.333 121.2 91.8C128.4 79.1333 134.4 66.4667 139.2 53.8C139.733 52.6 140.533 50.2 141.6 46.6C142.8 42.8667 144.267 38.0667 146 32.2C146.133 31.2667 146.667 30.8 147.6 30.8C147.733 30.9333 147.8 31.0667 147.8 31.2C147.8 41.8667 141.8 58.6 129.8 81.4C125.133 90.4667 120.333 98.9333 115.4 106.8C110.6 114.533 105.867 121.667 101.2 128.2C102.667 127.933 104.2 127.733 105.8 127.6C107.4 127.467 109.067 127.333 110.8 127.2C115.867 120.133 120.667 112.867 125.2 105.4C129.867 97.8 134.4 89.9333 138.8 81.8C144.4 71.1333 148.6 61.9333 151.4 54.2C154.333 46.3333 155.8 39.8667 155.8 34.8C155.8 28.6667 153.067 25.2 147.6 24.4C146.4 24.1333 145.8 23.7333 145.8 23.2C145.8 22.4 146.533 22 148 22C152.8 22 156.6 23.5333 159.4 26.6C162.067 29.9333 163.4 34 163.4 38.8C163.4 44.4 162.067 51 159.4 58.6C156.733 66.0667 152.8 74.6 147.6 84.2C143.6 91.4 139.267 98.5333 134.6 105.6C129.933 112.533 125 119.467 119.8 126.4C122.067 126.133 125.067 125.867 128.8 125.6C132.667 125.333 137.267 125.133 142.6 125C145.933 124.867 148.467 124.8 150.2 124.8C151.933 124.667 152.933 124.6 153.2 124.6H153C153 124.6 153.067 124.6 153.2 124.6C154 124.6 154.4 124.8 154.4 125.2C154.4 126.4 153.2 127.133 150.8 127.4C149.6 127.4 148.067 127.467 146.2 127.6C144.333 127.733 142.2 127.933 139.8 128.2C135 128.467 130.667 128.8 126.8 129.2C123.067 129.467 119.733 129.8 116.8 130.2C108.667 140.2 100.733 149.067 93 156.8C85.2667 164.667 77.6667 171.4 70.2 177C73.8 178.733 79.7333 180.333 88 181.8C89.2 181.933 89.8 182.333 89.8 183C89.8 183.667 89.1333 184 87.8 184C82.6 184 76.0667 182.2 68.2 178.6C55.1333 187.933 43.8 192.6 34.2 192.6ZM184.6 180.4C180.067 180.4 175.2 178.333 170 174.2C165.067 170.2 161.533 165.8 159.4 161C157.933 157.8 156.867 154.067 156.2 149.8C155.533 145.4 155.2 140.4 155.2 134.8C155.2 131.333 155.533 125.133 156.2 116.2C157 107.267 158.267 95.6667 160 81.4C160.133 80.4667 160.333 78.4 160.6 75.2C161 72 161.4 67.6667 161.8 62.2C161.933 59.8 162.4 58.6 163.2 58.6C164.4 58.6 165.067 60 165.2 62.8V94.6C165.2 129.8 168.067 153.8 173.8 166.6C177.267 174.467 181.267 178.4 185.8 178.4C191.667 178.4 198.267 172.667 205.6 161.2C205.467 163.467 204.067 166.4 201.4 170C200.067 171.733 198.733 173.267 197.4 174.6C196.2 175.933 195.067 176.933 194 177.6C190.667 179.467 187.533 180.4 184.6 180.4ZM67 175.4C73.4 170.333 79.9333 164.067 86.6 156.6C93.4 149.267 100.333 140.933 107.4 131.6C105.533 132 103.667 132.467 101.8 133C100.067 133.4 98.3333 133.867 96.6 134.4C90.6 142.133 84.6667 149.067 78.8 155.2C72.9333 161.2 67.2 166.4 61.6 170.8C62.2667 171.733 63.0667 172.533 64 173.2C65.0667 174 66.0667 174.733 67 175.4ZM60 168.2C70.1333 160.067 80.6 149.333 91.4 136C87.5333 137.333 83.8667 138.867 80.4 140.6C76.9333 142.333 73.8 144.2 71 146.2C63 151.533 59 157.2 59 163.2C59 164.8 59.3333 166.467 60 168.2Z" fill="white"/>
</svg>
